<?xml version="1.0" encoding="UTF-8" standalone="no"?>
<!DOCTYPE svg PUBLIC "-//W3C//DTD SVG 20010904//EN"
              "http://www.w3.org/TR/2001/REC-SVG-20010904/DTD/svg10.dtd">

<svg xmlns="http://www.w3.org/2000/svg"
     width="154.497mm" height="154.145mm"
     viewBox="0 0 438 437">
  <path id="Selection"
        fill="white" stroke="white" stroke-width="1"
        d="M 198.00,148.00
           C 200.89,157.58 196.58,158.01 198.81,161.61
             199.79,163.20 204.24,165.64 206.00,166.93
             209.76,169.68 214.64,174.32 217.47,178.00
             230.60,195.03 226.32,217.01 211.00,230.90
             204.85,236.47 200.13,236.87 193.00,240.00
             197.19,255.51 208.84,269.84 220.00,281.00
             239.34,300.34 269.25,317.96 295.00,327.31
             295.00,327.31 317.00,334.00 317.00,334.00
             307.20,342.91 291.24,352.75 279.00,358.00
             260.79,365.80 246.63,368.72 227.00,370.09
             227.00,370.09 217.00,370.96 217.00,370.96
             217.00,370.96 209.00,370.08 209.00,370.08
             148.50,365.24 94.72,324.97 75.33,267.00
             71.43,255.32 67.15,239.29 67.00,227.00
             67.00,227.00 67.00,211.00 67.00,211.00
             67.05,177.37 86.12,137.97 109.04,114.00
             122.62,99.79 132.26,93.26 149.00,83.57
             153.97,80.69 160.01,76.75 158.39,70.00
             156.46,61.98 148.11,62.53 142.00,64.70
             131.04,68.60 112.90,82.48 104.00,90.29
             72.41,117.99 48.01,166.53 48.00,209.00
             48.00,209.00 15.00,209.00 15.00,209.00
             9.55,209.01 4.06,208.91 1.74,215.02
             -1.67,223.99 7.82,227.91 15.00,228.00
             15.00,228.00 48.00,228.00 48.00,228.00
             48.02,236.11 49.41,244.06 51.00,252.00
             59.79,295.95 85.98,337.23 124.00,361.57
             140.71,372.26 156.77,379.45 176.00,384.37
             176.00,384.37 204.96,389.74 204.96,389.74
             210.40,391.98 209.99,397.10 210.00,402.00
             210.00,402.00 210.00,422.00 210.00,422.00
             210.01,425.29 209.80,428.92 211.45,431.90
             214.69,437.74 222.27,437.84 226.30,432.78
             229.14,429.21 228.99,424.30 229.00,420.00
             229.00,420.00 229.00,402.00 229.00,402.00
             229.01,398.35 228.67,394.16 231.43,391.31
             233.91,388.75 238.58,388.80 242.00,388.25
             242.00,388.25 266.00,383.37 266.00,383.37
             299.05,374.86 331.32,353.57 352.55,327.00
             370.25,304.85 381.46,280.71 387.00,253.00
             390.66,234.71 388.29,228.18 401.00,228.00
             401.00,228.00 421.00,228.00 421.00,228.00
             425.30,227.99 430.21,228.14 433.78,225.30
             438.84,221.27 438.74,213.69 432.90,210.45
             429.92,208.80 426.29,209.01 423.00,209.00
             423.00,209.00 403.00,209.00 403.00,209.00
             397.90,208.99 393.26,209.48 390.88,203.96
             389.47,200.71 389.11,194.61 388.57,191.00
             388.57,191.00 384.12,170.00 384.12,170.00
             379.82,153.74 371.45,137.22 362.58,123.00
             339.88,86.63 301.13,61.86 260.00,51.63
             250.17,49.18 239.13,47.03 229.00,47.00
             229.00,47.00 229.00,16.00 229.00,16.00
             228.99,12.67 229.15,9.15 227.77,6.04
             224.74,-0.79 216.67,-1.35 212.43,3.28
             210.06,5.86 210.05,8.72 210.00,12.00
             210.00,12.00 210.00,50.00 210.00,50.00
             210.01,54.77 209.77,60.87 214.22,63.91
             218.52,66.86 225.93,65.74 231.00,66.09
             231.00,66.09 240.00,67.15 240.00,67.15
             252.94,68.72 268.02,73.87 280.00,79.00
             324.02,97.87 355.91,137.92 367.37,184.00
             369.90,194.15 372.11,207.57 372.00,218.00
             372.00,218.00 369.08,244.00 369.08,244.00
             365.32,266.74 356.14,288.50 342.37,307.00
             339.03,311.49 331.12,322.64 325.00,321.99
             320.56,321.52 306.29,311.74 302.00,308.84
             284.98,297.32 258.03,277.00 244.72,262.00
             241.00,257.81 228.11,244.13 227.42,239.18
             226.98,236.00 232.73,232.28 234.91,229.99
             239.75,224.90 245.89,215.52 248.55,209.00
             254.60,194.13 253.57,171.74 240.83,160.52
             230.25,151.20 211.73,148.01 198.00,148.00 Z
           M 147.00,148.00
           C 141.46,148.00 126.47,147.49 122.00,148.79
             119.43,149.53 115.47,151.18 114.82,154.10
             114.33,156.31 116.04,159.08 117.00,161.00
             122.60,159.27 129.26,154.14 134.98,157.74
             140.11,160.97 140.93,165.43 141.00,171.00
             141.00,171.00 141.00,202.00 141.00,202.00
             141.00,213.31 143.18,218.02 134.00,226.00
             134.00,226.00 140.20,237.00 140.20,237.00
             140.20,237.00 141.00,254.00 141.00,254.00
             141.00,254.00 141.00,285.00 141.00,285.00
             141.00,285.00 137.24,312.00 137.24,312.00
             137.24,312.00 143.00,323.00 143.00,323.00
             143.00,323.00 153.00,338.00 153.00,338.00
             158.64,333.95 170.48,318.88 171.52,312.00
             172.00,308.86 169.93,302.34 169.13,299.00
             167.73,293.11 167.01,287.05 167.11,281.00
             167.11,281.00 167.11,204.00 167.11,204.00
             167.11,204.00 167.11,167.00 167.11,167.00
             168.26,161.80 171.55,157.50 177.00,156.74
             182.74,155.70 191.26,163.00 193.83,156.74
             195.37,153.17 190.79,150.47 188.00,149.40
             182.32,147.22 168.64,148.00 162.00,148.00
             162.00,148.00 162.00,131.00 162.00,131.00
             162.00,131.00 163.00,112.00 163.00,112.00
             162.99,106.35 163.07,99.69 155.98,98.43
             150.17,97.40 146.58,101.59 146.11,107.00
             146.11,107.00 147.00,122.00 147.00,122.00
             147.00,122.00 147.00,148.00 147.00,148.00 Z" />
</svg>
